<svg width="235" height="235" viewBox="0 0 235 235" fill="none" xmlns="http://www.w3.org/2000/svg">
<path d="M235 117.5L58.75 219.258L58.75 15.742L235 117.5Z" fill="#212121"/>
<line x1="68" y1="123.011" x2="68" y2="76" stroke="#FFB800" stroke-width="5"/>
<line x1="70" y1="78.5053" x2="117.011" y2="78.5053" stroke="#FFB800" stroke-width="5"/>
<line x1="166.011" y1="105" x2="166.011" y2="152.011" stroke="#FFB800" stroke-width="5"/>
<line x1="164.011" y1="149.505" x2="117" y2="149.505" stroke="#FFB800" stroke-width="5"/>
<path d="M89.618 109H86.428C85.5773 106.624 85.152 105.436 85.152 105.436H80.84C80.6493 105.905 80.444 106.441 80.224 107.042C80.0187 107.629 79.7913 108.281 79.542 109H76.572C76.8947 108.281 77.4887 106.771 78.354 104.468C79.2193 102.151 80.378 99.0193 81.83 95.074H84.316C84.7707 96.3207 85.196 97.4867 85.592 98.572C86.0027 99.6427 86.3767 100.64 86.714 101.564C88.3713 106.008 89.3393 108.487 89.618 109ZM84.426 102.796C84.206 102.165 83.986 101.542 83.766 100.926C83.546 100.31 83.326 99.694 83.106 99.078C82.1967 101.615 81.7347 102.855 81.72 102.796H84.426ZM101.977 109.066C100.892 109.022 99.9382 108.993 99.1168 108.978C98.2955 108.949 97.5915 108.941 97.0048 108.956C95.6555 108.956 93.7415 109 91.2628 109.088C91.4242 108.487 91.5048 106.081 91.5048 101.872C91.5048 97.8827 91.4315 95.646 91.2848 95.162C92.0182 95.206 93.7415 95.25 96.4548 95.294C97.0415 95.3087 97.7455 95.3087 98.5668 95.294C99.3882 95.2647 100.349 95.228 101.449 95.184C101.361 95.932 101.361 96.9367 101.449 98.198H99.6888C99.6595 97.9633 99.6448 97.846 99.6448 97.846C99.6448 97.802 99.6008 97.736 99.5128 97.648C99.4542 97.5453 98.9848 97.494 98.1048 97.494H94.2548C94.2255 98.0513 94.2255 99.1367 94.2548 100.75C97.4375 100.75 99.2708 100.647 99.7548 100.442V103.148C99.0655 102.928 97.2322 102.84 94.2548 102.884L94.2328 106.712H98.6548C99.4468 106.712 99.9088 106.624 100.041 106.448C100.129 106.316 100.195 106.089 100.239 105.766H101.977C101.904 107.262 101.904 108.362 101.977 109.066ZM114.316 102.18C114.302 102.371 114.28 102.657 114.25 103.038C114.221 103.405 114.192 103.881 114.162 104.468C114.148 104.761 114.14 105.26 114.14 105.964C114.14 106.653 114.14 107.57 114.14 108.714C113.759 108.699 113.385 108.714 113.018 108.758C112.666 108.787 112.322 108.853 111.984 108.956C111.324 109.132 110.606 109.22 109.828 109.22C109.506 109.22 109.205 109.198 108.926 109.154C107.254 108.905 105.905 108.098 104.878 106.734C103.866 105.399 103.36 103.859 103.36 102.114C103.36 100.075 103.94 98.4033 105.098 97.098C106.301 95.69 107.922 94.986 109.96 94.986C110.327 94.986 110.98 95.1033 111.918 95.338C112.828 95.5433 113.429 95.6167 113.722 95.558C113.722 95.9393 113.832 97.1053 114.052 99.056H112.336C112.322 98.9533 112.285 98.836 112.226 98.704C112.182 98.572 112.124 98.4253 112.05 98.264C111.625 97.8387 110.928 97.6407 109.96 97.67C109.022 97.6847 108.215 98.066 107.54 98.814C106.778 99.6353 106.396 100.765 106.396 102.202C106.396 103.493 106.807 104.549 107.628 105.37C108.391 106.147 109.271 106.499 110.268 106.426C110.503 106.411 110.708 106.353 110.884 106.25C111.06 106.147 111.207 106.023 111.324 105.876C111.456 105.729 111.552 105.568 111.61 105.392C111.669 105.201 111.698 105.018 111.698 104.842V104.248C111.024 104.248 110.657 104.292 110.598 104.38C110.54 104.439 110.496 104.629 110.466 104.952H108.684C108.714 104.644 108.728 104.402 108.728 104.226C108.743 104.05 108.75 103.845 108.75 103.61C108.765 103.302 108.765 103.045 108.75 102.84C108.736 102.62 108.714 102.393 108.684 102.158C110.048 102.173 111.192 102.187 112.116 102.202C113.055 102.202 113.788 102.195 114.316 102.18ZM126.877 109.066C125.792 109.022 124.839 108.993 124.017 108.978C123.196 108.949 122.492 108.941 121.905 108.956C120.556 108.956 118.642 109 116.163 109.088C116.325 108.487 116.405 106.081 116.405 101.872C116.405 97.8827 116.332 95.646 116.185 95.162C116.919 95.206 118.642 95.25 121.355 95.294C121.942 95.3087 122.646 95.3087 123.467 95.294C124.289 95.2647 125.249 95.228 126.349 95.184C126.261 95.932 126.261 96.9367 126.349 98.198H124.589C124.56 97.9633 124.545 97.846 124.545 97.846C124.545 97.802 124.501 97.736 124.413 97.648C124.355 97.5453 123.885 97.494 123.005 97.494H119.155C119.126 98.0513 119.126 99.1367 119.155 100.75C122.338 100.75 124.171 100.647 124.655 100.442V103.148C123.966 102.928 122.133 102.84 119.155 102.884L119.133 106.712H123.555C124.347 106.712 124.809 106.624 124.941 106.448C125.029 106.316 125.095 106.089 125.139 105.766H126.877C126.804 107.262 126.804 108.362 126.877 109.066ZM141.417 109H138.227C137.376 106.624 136.951 105.436 136.951 105.436H132.639C132.448 105.905 132.243 106.441 132.023 107.042C131.817 107.629 131.59 108.281 131.341 109H128.371C128.693 108.281 129.287 106.771 130.153 104.468C131.018 102.151 132.177 99.0193 133.629 95.074H136.115C136.569 96.3207 136.995 97.4867 137.391 98.572C137.801 99.6427 138.175 100.64 138.513 101.564C140.17 106.008 141.138 108.487 141.417 109ZM136.225 102.796C136.005 102.165 135.785 101.542 135.565 100.926C135.345 100.31 135.125 99.694 134.905 99.078C133.995 101.615 133.533 102.855 133.519 102.796H136.225ZM156.878 95.316C156.804 95.5947 156.746 95.9687 156.702 96.438C156.672 96.9073 156.65 97.4867 156.636 98.176C156.65 97.7653 156.658 97.9047 156.658 98.594C156.658 99.2687 156.658 100.493 156.658 102.268V109H153.908C153.204 108.208 152.544 107.46 151.928 106.756C151.312 106.052 150.74 105.385 150.212 104.754C147.63 101.791 146.112 99.9433 145.658 99.21V102.268V106.206C145.672 106.881 145.694 107.453 145.724 107.922C145.768 108.377 145.826 108.736 145.9 109H142.666C142.739 108.721 142.79 108.355 142.82 107.9C142.864 107.445 142.893 106.888 142.908 106.228V102.224C142.908 101.095 142.908 100.185 142.908 99.496C142.908 98.8067 142.9 98.3227 142.886 98.044C142.812 96.6213 142.673 95.712 142.468 95.316C144.917 95.316 146.142 95.3087 146.142 95.294C148.327 97.8607 150.065 99.9287 151.356 101.498C152.646 103.053 153.497 104.138 153.908 104.754V102.18C153.908 100.552 153.908 99.408 153.908 98.748C153.908 98.0733 153.915 97.868 153.93 98.132C153.915 96.812 153.827 95.8733 153.666 95.316H156.878Z" fill="white"/>
<path d="M100.466 121.294C100.246 121.705 100.099 122.621 100.026 124.044C100.011 124.323 99.9967 124.807 99.982 125.496C99.982 126.185 99.982 127.087 99.982 128.202V132.228C99.9967 132.888 100.019 133.445 100.048 133.9C100.092 134.355 100.151 134.721 100.224 135H98.376C98.4493 134.721 98.5007 134.355 98.53 133.9C98.574 133.431 98.6033 132.866 98.618 132.206V128.246V122.834C98.4567 123.509 97.9433 124.697 97.078 126.398C96.2127 128.085 95.0027 130.299 93.448 133.042C92.5387 131.487 91.7467 130.079 91.072 128.818C89.4587 125.811 88.5347 123.853 88.3 122.944V128.246V132.206C88.3147 132.881 88.3367 133.453 88.366 133.922C88.41 134.377 88.4687 134.736 88.542 135H86.76C86.8333 134.721 86.8847 134.355 86.914 133.9C86.958 133.445 86.9873 132.888 87.002 132.228V128.202C87.002 127.087 87.002 126.185 87.002 125.496C87.002 124.807 86.9947 124.323 86.98 124.044C86.9067 122.621 86.76 121.705 86.54 121.294H88.696L93.426 130.336L98.244 121.294H100.466ZM112.449 135.11C111.511 135.066 110.667 135.029 109.919 135C109.171 134.985 108.504 134.985 107.917 135C107.463 135.015 106.861 135.029 106.113 135.044C105.38 135.073 104.5 135.103 103.473 135.132C103.62 134.648 103.693 132.228 103.693 127.872C103.693 123.927 103.62 121.712 103.473 121.228C104.456 121.287 105.747 121.331 107.345 121.36C107.932 121.375 108.599 121.375 109.347 121.36C110.11 121.331 110.961 121.294 111.899 121.25C111.826 121.763 111.826 122.467 111.899 123.362H110.799C110.77 123.127 110.755 123.01 110.755 123.01C110.755 122.966 110.711 122.9 110.623 122.812C110.565 122.709 110.095 122.658 109.215 122.658H105.145C105.116 124.022 105.116 125.511 105.145 127.124C108.328 127.124 110.161 127.021 110.645 126.816V128.708C109.956 128.488 108.123 128.4 105.145 128.444C105.131 130.072 105.131 131.817 105.145 133.68H109.787C110.579 133.68 111.041 133.592 111.173 133.416C111.261 133.284 111.327 133.057 111.371 132.734H112.449C112.376 133.819 112.376 134.611 112.449 135.11ZM124.976 128.334C124.976 130.285 124.338 131.883 123.062 133.13C121.815 134.377 120.209 135 118.244 135H114.196C114.299 134.604 114.365 134.054 114.394 133.35C114.438 132.646 114.46 130.908 114.46 128.136C114.46 126.948 114.46 125.965 114.46 125.188C114.46 124.396 114.453 123.795 114.438 123.384C114.423 122.973 114.394 122.599 114.35 122.262C114.321 121.925 114.269 121.617 114.196 121.338H118.398C120.525 121.338 122.167 121.983 123.326 123.274C124.426 124.506 124.976 126.193 124.976 128.334ZM123.348 128.334C123.348 124.697 121.654 122.878 118.266 122.878H115.912V125.408C115.897 125.965 115.89 126.457 115.89 126.882C115.89 127.307 115.89 127.659 115.89 127.938C115.89 129.126 115.912 131.003 115.956 133.57H118.222C119.747 133.57 120.979 133.079 121.918 132.096C122.871 131.099 123.348 129.845 123.348 128.334ZM129.386 121.338C129.313 121.617 129.254 121.991 129.21 122.46C129.181 122.915 129.159 123.472 129.144 124.132V128.18V132.162C129.173 133.541 129.247 134.487 129.364 135H127.45C127.611 134.443 127.699 133.504 127.714 132.184C127.714 129.485 127.714 127.388 127.714 125.892C127.714 124.396 127.707 123.479 127.692 123.142C127.677 122.805 127.648 122.489 127.604 122.196C127.575 121.903 127.523 121.617 127.45 121.338H129.386ZM143.74 135H141.738C141.636 134.531 141.13 133.027 140.22 130.49H134.698C133.76 132.881 133.224 134.384 133.092 135H131.332C132.051 133.577 133.877 128.935 136.81 121.074H138.372C138.827 122.321 139.252 123.487 139.648 124.572C140.059 125.643 140.44 126.64 140.792 127.564C142.435 131.979 143.418 134.457 143.74 135ZM139.758 129.148C139.348 127.989 138.959 126.86 138.592 125.76C138.24 124.66 137.903 123.582 137.58 122.526C137.375 123.157 137.074 124.022 136.678 125.122C136.282 126.207 135.776 127.549 135.16 129.148H139.758Z" fill="white"/>
</svg>
